<?xml version="1.0" encoding="UTF-8"?>
<svg xmlns="http://www.w3.org/2000/svg" width="164" height="45" viewBox="0 0 164 45" fill="none">
  <g id="Group">
    <g id="Group_2">
      <path id="Vector" d="M69.5134 10.5317L64.7278 21.1514L59.9422 10.5317H53.0049L61.1034 24.9545C61.5035 25.6686 61.7154 26.4774 61.7154 27.2948V33.5931H67.8375V27.3357C67.8375 26.5334 68.0407 25.7396 68.4278 25.0362L76.388 10.5317H69.5134Z" fill="black"></path>
      <path id="Vector_2" d="M107.796 10.5317H98.3955V33.5931H107.796C115.233 33.5931 118.548 30.6892 118.548 24.1758V19.949C118.548 13.4507 115.332 10.6328 107.796 10.5317ZM112.361 24.1758C112.361 27.4712 111.04 28.8135 107.796 28.8135H104.515V15.3092H107.796C110.994 15.3092 112.361 16.6966 112.361 19.9469V24.1758Z" fill="black"></path>
      <path id="Vector_3" d="M128.099 24.5501H136.894V19.8049H128.099V15.3114H137.982V10.5317H121.979V33.5931H138.246V28.8135H128.099V24.5501Z" fill="black"></path>
      <path id="Vector_4" d="M81.3121 10.5317L72.9648 33.5931H79.3312L80.3736 30.2439H88.6084L89.6507 33.5931H96.0171L87.6698 10.5317H81.3121ZM81.7878 25.5568L84.491 16.1438L87.1444 25.5568H81.7878Z" fill="black"></path>
      <path id="Vector_5" d="M155.328 10.5317H148.97L140.623 33.5931H146.989L148.032 30.2439H156.267L157.309 33.5931H163.675L155.328 10.5317ZM149.446 25.5568L152.149 16.1438L154.803 25.5568H149.446Z" fill="black"></path>
    </g>
    <g id="Group_3">
      <path id="Vector_6" d="M6.48106 11.4978L1.17861 8.45403C0.908301 8.29916 0.573114 8.50566 0.596901 8.81541C0.880189 12.7368 2.11498 20.1385 7.01736 28.5878C11.9219 37.0371 17.7499 41.8017 21.0217 44.0065C21.2791 44.1786 21.6272 43.9957 21.6272 43.686V37.5964C21.6272 37.5964 21.891 28.0156 18.4224 22.04C14.9537 16.0623 6.48106 11.4978 6.48106 11.4978Z" fill="#FF5F00"></path>
      <path id="Vector_7" d="M44.033 5.08979C44.3033 4.93492 44.2903 4.54343 44.0092 4.40791C40.454 2.69353 33.3891 0.0541992 23.58 0.0541992C13.7709 0.0541992 6.70604 2.69353 3.15089 4.40791C2.87192 4.54343 2.85895 4.93492 3.1271 5.08979L8.42955 8.13567C8.42955 8.13567 16.6406 13.1519 23.5779 13.1519C30.5152 13.1519 38.7283 8.13567 38.7283 8.13567L44.033 5.08979Z" fill="#FF5F00"></path>
      <path id="Vector_8" d="M45.9796 8.45397L40.6771 11.4977C40.6771 11.4977 32.2044 16.0601 28.7358 22.0378C25.2671 28.0134 25.531 37.5942 25.531 37.5942V43.6838C25.531 43.9935 25.8791 44.1785 26.1365 44.0043C29.4083 41.7994 35.2363 37.0349 40.1408 28.5856C45.0454 20.1363 46.278 12.7345 46.5613 8.8132C46.5851 8.5056 46.2499 8.29695 45.9796 8.45397Z" fill="#FF5F00"></path>
    </g>
  </g>
</svg>
